<?xml version="1.0" standalone="no"?>
<!DOCTYPE svg PUBLIC "-//W3C//DTD SVG 20010904//EN"
 "http://www.w3.org/TR/2001/REC-SVG-20010904/DTD/svg10.dtd">
<svg version="1.0" xmlns="http://www.w3.org/2000/svg"
 width="863.000000pt" height="1280.000000pt" viewBox="0 0 863.000000 1280.000000"
 preserveAspectRatio="xMidYMid meet">
<metadata>
Created by potrace 1.15, written by Peter Selinger 2001-2017
</metadata>
<g transform="translate(0.000000,1280.000000) scale(0.100000,-0.100000)"
fill="#000000" stroke="none">
<path d="M4324 12764 c3 -22 8 -227 11 -458 l5 -419 -50 7 c-33 4 -60 2 -82
-7 -40 -17 -98 -80 -98 -107 0 -34 56 -60 127 -60 131 0 152 -40 47 -89 -37
-17 -64 -35 -60 -39 4 -4 33 -9 64 -12 l57 -5 3 -82 c2 -57 -2 -93 -13 -119
-19 -46 -19 -81 0 -92 12 -6 17 -37 22 -145 4 -101 9 -137 19 -137 7 0 18 -16
24 -35 7 -20 20 -37 33 -41 45 -15 137 -4 292 36 88 22 221 54 295 71 165 36
172 38 165 49 -3 5 3 11 12 14 84 24 309 86 448 122 170 44 249 75 268 105 13
20 -45 153 -229 524 -159 322 -252 494 -334 615 -33 50 -60 96 -60 103 0 8
-103 47 -277 104 -274 90 -280 91 -443 107 -91 9 -184 19 -208 23 l-43 5 5
-38z"/>
<path d="M6520 11259 c-296 -24 -653 -91 -1059 -200 -463 -124 -810 -244
-1816 -627 -187 -71 -380 -141 -430 -155 -135 -39 -499 -127 -875 -212 -417
-95 -685 -161 -905 -225 -859 -248 -1298 -520 -1411 -874 -22 -70 -25 -92 -20
-166 7 -115 36 -214 101 -345 61 -124 139 -228 222 -297 64 -53 166 -95 388
-158 231 -66 617 -148 708 -150 16 0 5 40 -39 150 -84 207 -71 316 69 568 61
109 54 108 197 42 48 -22 99 -40 114 -40 38 0 60 42 85 168 38 189 51 236 82
299 38 78 74 115 136 137 26 10 122 53 213 96 250 118 332 140 529 140 241 0
395 -75 374 -182 -14 -72 -139 -167 -368 -278 -189 -91 -230 -133 -165 -168
50 -26 131 -2 219 65 49 37 94 43 127 15 11 -9 39 -40 63 -69 82 -101 228
-143 339 -98 57 23 88 63 114 148 47 155 23 254 -95 387 -37 41 -67 80 -67 86
0 17 25 24 89 24 115 0 221 54 221 112 0 61 -79 106 -312 179 -76 23 -134 47
-131 52 11 17 378 -10 598 -45 148 -23 241 -49 301 -84 62 -36 125 -40 218
-14 53 15 82 18 88 12 14 -14 -24 -77 -108 -177 -117 -139 -161 -261 -171
-465 -9 -205 22 -379 128 -705 61 -192 71 -271 41 -331 -11 -21 -65 -90 -120
-152 -155 -173 -186 -245 -156 -351 9 -32 14 -69 12 -82 -3 -23 -6 -24 -68
-22 -281 11 -342 8 -430 -21 -47 -16 -134 -53 -195 -84 -230 -115 -308 -120
-398 -27 -50 51 -47 36 8 -40 51 -73 126 -131 191 -151 57 -17 109 -8 236 41
187 72 282 81 435 39 116 -31 144 -27 179 27 22 35 29 39 64 39 56 0 106 -44
96 -85 -9 -34 -103 -133 -230 -240 -52 -44 -95 -83 -95 -87 -1 -3 70 -30 157
-58 197 -65 309 -118 351 -165 102 -116 -48 -184 -406 -185 -181 0 -263 -22
-249 -67 12 -38 67 -54 223 -63 81 -6 171 -17 200 -25 64 -19 78 -39 63 -95
-19 -72 9 -92 145 -105 149 -13 258 -99 289 -227 9 -41 -26 -73 -124 -111
-112 -44 -205 -99 -315 -188 -110 -88 -172 -119 -242 -119 -77 0 -174 47 -155
76 4 6 33 30 65 54 32 23 56 48 54 54 -2 6 -22 11 -44 10 -56 -1 -150 -61
-250 -160 -109 -107 -110 -117 -4 -167 86 -40 142 -93 233 -222 101 -141 139
-252 103 -299 -19 -26 -19 -69 1 -137 34 -113 100 -191 172 -203 74 -11 141
-103 150 -204 4 -42 -1 -64 -22 -111 -29 -66 -33 -103 -11 -121 25 -21 73 -1
134 56 32 30 61 54 65 54 3 0 -22 -55 -55 -122 -45 -92 -59 -130 -55 -151 3
-15 -3 -114 -14 -219 -32 -307 -25 -477 21 -527 49 -52 131 -12 260 130 45 49
89 89 98 89 9 0 27 -21 41 -48 40 -76 55 -72 198 56 67 60 205 178 306 260
326 268 442 392 556 596 86 153 193 329 247 404 40 57 47 62 81 62 84 0 188
-121 271 -316 76 -178 111 -379 86 -496 -12 -60 -11 -65 10 -108 35 -69 72
-179 106 -312 16 -66 39 -138 49 -158 42 -81 126 -120 262 -120 127 0 136 11
148 178 12 166 50 255 127 303 36 23 73 58 73 70 0 4 -16 10 -35 13 -41 8 -91
55 -116 111 -43 94 -15 104 64 22 80 -82 229 -180 442 -289 198 -101 308 -141
373 -136 l45 3 75 -85 c122 -139 182 -241 237 -404 l24 -71 53 -12 c29 -6 55
-12 57 -12 2 -1 -2 -8 -9 -16 -19 -23 -8 -26 61 -18 71 9 74 13 102 110 l15
51 -45 11 c-50 13 -63 33 -38 61 16 17 15 21 -21 77 -54 85 -178 204 -247 238
-34 16 -84 30 -121 34 -54 6 -71 13 -110 45 -25 20 -46 45 -46 55 0 37 -25 55
-78 56 -28 1 -49 -2 -47 -6 5 -7 -28 -19 -52 -19 -7 0 -13 9 -13 20 0 18 -7
20 -55 20 -54 0 -59 2 -278 147 -122 81 -250 164 -285 184 -55 32 -67 45 -91
96 -67 140 -246 416 -391 603 -116 149 -189 269 -325 530 -122 237 -167 304
-261 396 -59 58 -94 82 -199 135 -140 70 -186 110 -207 181 -18 58 -17 615 1
748 20 149 48 257 88 332 41 78 90 124 174 161 115 51 159 112 159 225 0 138
72 356 206 625 109 220 145 334 218 698 57 282 96 548 96 652 0 105 34 147
192 233 107 59 162 105 177 146 42 112 108 215 245 377 198 236 294 394 363
599 30 91 37 124 41 223 5 126 -7 188 -55 283 -120 236 -533 350 -1103 305z"/>
<path d="M1717 8191 c-72 -86 -108 -342 -61 -433 37 -71 79 -14 125 169 51
201 47 284 -12 291 -19 2 -33 -5 -52 -27z"/>
<path d="M3554 7688 c-8 -13 3 -22 104 -85 40 -25 79 -43 87 -39 21 8 20 80
-2 101 -9 9 -27 21 -40 26 -35 13 -140 11 -149 -3z"/>
<path d="M3159 6765 c-50 -27 -81 -102 -53 -129 42 -42 174 17 174 78 0 54
-65 81 -121 51z"/>
<path d="M2206 5418 c-44 -68 -76 -209 -76 -340 0 -58 9 -106 35 -198 87 -302
311 -790 441 -960 44 -59 127 -140 160 -158 84 -45 35 119 -126 418 -233 434
-274 557 -290 870 -15 272 -43 381 -102 388 -19 2 -31 -4 -42 -20z"/>
<path d="M6095 3743 c-16 -9 -54 -34 -83 -55 -29 -21 -109 -77 -178 -124 -199
-134 -306 -225 -504 -423 -235 -237 -324 -309 -613 -496 -352 -229 -644 -571
-778 -913 -52 -134 -76 -228 -89 -354 -12 -114 -2 -319 16 -325 13 -4 50 75
69 152 18 71 19 145 3 214 -8 38 -9 57 0 76 25 54 103 18 118 -54 3 -14 8 -39
13 -56 l7 -30 30 31 c16 17 67 105 114 195 96 185 143 261 206 336 64 74 104
97 159 89 39 -6 46 -4 58 16 9 13 18 42 22 66 4 23 11 42 15 42 12 0 47 -97
59 -166 26 -143 46 -538 71 -1364 18 -565 42 -731 70 -483 32 284 37 703 14
1250 -22 531 -12 672 54 763 36 51 83 80 189 120 99 36 133 65 133 114 0 67
106 172 235 232 108 50 227 80 510 128 260 45 366 71 438 108 22 11 42 17 45
14 3 -3 -5 -29 -18 -56 -25 -53 -21 -72 11 -52 16 11 37 3 154 -59 l135 -71
-67 89 c-71 94 -140 230 -166 328 -9 33 -21 102 -27 153 -16 142 -70 268 -168
389 -85 107 -133 158 -165 176 -39 21 -53 21 -92 0z"/>
<path d="M2471 3709 c-20 -6 -60 -36 -96 -73 -58 -58 -97 -112 -235 -333 -39
-61 -97 -129 -195 -229 -155 -157 -259 -242 -510 -419 -669 -470 -1122 -861
-1091 -940 10 -26 25 -17 72 44 71 92 201 192 499 384 330 214 439 293 578
425 173 162 373 283 544 327 52 14 62 13 105 -1 43 -14 53 -14 102 0 62 18
163 83 202 129 34 40 54 87 54 127 0 69 62 85 205 55 38 -8 86 -15 105 -15
l35 0 -52 48 c-73 67 -98 114 -127 240 -44 195 -98 259 -195 231z"/>
<path d="M3430 3437 c0 -29 35 -82 150 -227 50 -63 164 -223 252 -355 198
-295 280 -406 348 -469 47 -44 53 -47 68 -33 14 15 13 21 -18 69 -76 118 -115
228 -127 353 -6 69 -21 68 -22 -2 -1 -17 -6 -35 -12 -39 -6 -3 -9 -15 -6 -25
10 -39 -27 -10 -53 41 -12 23 -12 24 4 11 44 -36 28 31 -42 181 -44 95 -69
126 -56 71 5 -26 48 -168 61 -203 10 -29 -48 48 -159 210 -174 255 -259 362
-325 413 -45 33 -63 34 -63 4z"/>
<path d="M7800 3415 c0 -17 22 -45 35 -45 8 0 15 3 15 8 -1 9 -50 46 -50 37z"/>
<path d="M8576 2871 c-4 -6 -3 -19 3 -28 9 -17 10 -17 17 0 8 21 -10 45 -20
28z"/>
<path d="M8340 2658 c0 -7 5 -20 10 -28 8 -12 10 -11 10 7 0 12 -4 25 -10 28
-5 3 -10 0 -10 -7z"/>
<path d="M8385 2610 c-19 -8 -19 -9 2 -9 12 -1 25 4 28 9 7 12 -2 12 -30 0z"/>
<path d="M6864 2527 c106 -97 234 -189 331 -237 210 -104 169 -24 -62 119
-110 67 -329 191 -339 191 -5 -1 26 -33 70 -73z"/>
</g>
</svg>
